PathFileType	4	(X/Y/Z)	C:/Users/beibeiliu/ov580/test_trc/User3\sequence.39_training_dense_right.trc
DataRate	CameraRate	NumFrames	NumMarkers	Units	OrigDataRate	OrigDataStartFrame	OrigNumFrames
120	120	8	19	mm	120	31	92
Frame#	Time	ThumbCMC			ThumbMCP			ThumbIP			ThumbTip			IndexMCP			IndexPIP			IndexTip			MiddleMCP			MiddlePIP			MiddleTip			RingMCP			RingPIP			RingTip			PinkyMCP			PinkyPIP			PinkyTip			BackHand1			BackHand2			BackHand3	
		X0	Y0	Z0	X1	Y1	Z1	X2	Y2	Z2	X3	Y3	Z3	X4	Y4	Z4	X5	Y5	Z5	X6	Y6	Z6	X7	Y7	Z7	X8	Y8	Z8	X9	Y9	Z9	X10	Y10	Z10	X11	Y11	Z11	X12	Y12	Z12	X13	Y13	Z13	X14	Y14	Z14	X15	Y15	Z15	X16	Y16	Z16	X17	Y17	Z17	X18	Y18	Z18	
30	0.25	82.8947	3.71613	9.23104	64.146	-7.2739	-15.0481	57.3459	-20.632	-39.924	63.1241	-34.9717	-58.9358	91.3494	9.19924	-67.0769	90.9552	0.967491	-92.062	87.3984	-3.72054	-113.902	111.531	0.314174	-75.7793	105.07	-5.86314	-103.004	97.1019	-14.4172	-130.821	125.935	-10.7604	-69.9894	118.923	-13.7024	-92.8362	116.21	-23.4007	-120.184	136.938	-22.7351	-54.1611	132.01	-26.1235	-75.9414	131.729	-29.6086	-95.6256	140.33	1.8012	-18.6728	146.064	4.84119	8.72281	113.555	20.4979	-0.937311	
31	0.258333	92.0018	10.988	13.214	71.5204	0.752611	-13.8768	60.0893	-8.54388	-36.4788	55.5007	-21.1804	-58.7219	105.926	17.1263	-61.5323	100.022	12.4597	-89.8984	98.4583	5.25176	-112.989	122.809	9.32979	-73.6986	116.841	3.16358	-98.5129	105.206	-2.44353	-129.368	133.637	-2.98909	-67.1158	129.901	-7.42638	-90.7663	122.836	-11.7858	-112.789	147.563	-17.8647	-51.1394	141.457	-19.7399	-71.4648	137.041	-21.4957	-93.8456	147.634	7.55409	-15.1211	154.337	11.388	15.4899	126.128	24.6582	2.01497	
32	0.266667	97.8913	16.2368	18.197	77.5557	6.07603	-11.1645	63.038	-1.00482	-35.6122	57.7315	-12.1267	-55.6542	114.477	23.6115	-58.6197	106.3	19.6665	-88.8936	104.31	13.461	-108.383	130.87	15.0942	-67.1465	121.992	11.4128	-96.2711	117.16	3.12037	-125.295	143.575	2.01179	-62.5472	138.187	-0.227448	-86.7775	134.063	-7.90933	-113.553	155.179	-12.2153	-46.8847	153.649	-16.2481	-69.8472	144.919	-17.3841	-94.0521	159.726	10.7088	-10.9818	165.018	9.40529	16.3728	134.799	28.5132	2.11095	
33	0.275	106.824	17.2813	18.1031	85.3282	9.30549	-4.68348	70.7388	1.88602	-30.3161	62.1864	-5.69493	-53.6587	120.441	28.7776	-61.0254	116.752	24.199	-84.4457	116.032	16.2349	-107.351	141.698	16.3465	-64.9573	132.617	15.0781	-93.6731	124.434	9.81015	-121.192	152.557	4.38353	-64.0769	148.79	2.46835	-85.9378	144.91	-4.57033	-109.146	163.441	-8.96585	-48.0456	161.09	-11.5481	-68.3169	157.3	-12.4885	-93.8509	167.182	14.6792	-8.9395	170.336	13.3313	17.1502	139.137	32.0299	8.60557	
34	0.283333	113.931	19.2544	15.9672	91.2097	13.1117	-8.29977	81.0462	5.4101	-29.904	68.3817	-1.13107	-53.6515	131.404	28.1264	-58.202	123.359	27.9559	-87.5619	122.584	21.8456	-107.016	144.108	22.7488	-68.0682	139.52	18.3422	-92.1768	131.685	11.2427	-124.079	157.546	8.42207	-60.9223	155.355	5.04329	-83.1937	147.74	1.60401	-112.216	168.719	-7.02064	-46.908	166.529	-9.45936	-68.5284	161.652	-7.85968	-89.8767	173.057	12.5251	-6.50807	175.742	13.1056	21.6754	146.416	33.2004	6.35962	
35	0.291667	117.843	20.2631	18.5269	95.7478	14.88	-11.2357	81.4548	8.83613	-33.6296	77.4077	-0.00423019	-54.6811	132.356	33.079	-62.0692	130.479	26.8054	-83.9156	125.733	25.1943	-107.717	150.056	23.3028	-70.193	144.397	19.6046	-95.0106	138.878	12.5406	-123.578	164.039	7.7535	-60.6937	156.625	8.47799	-87.2956	154.261	1.8068	-114.155	171.578	-4.3071	-49.3951	168.799	-6.87812	-65.7868	165.374	-7.24981	-90.7303	174.782	17.5947	-7.75545	179.85	14.1155	23.0525	152.924	33.6391	6.63236	
36	0.3	119.192	22.2439	13.06	99.3616	14.7054	-9.42283	84.7806	10.0132	-39.9749	77.8454	1.50663	-57.6476	137.86	31.6175	-62.0161	130.976	30.7493	-86.5057	130.714	23.8501	-108.561	149.651	25.6412	-70.5855	146.15	20.1688	-94.8889	137.303	16.9829	-127.057	164.432	9.71807	-61.7071	159.452	7.85924	-89.433	154.541	3.74808	-114.511	175.931	-6.60551	-47.6156	172.314	-6.11929	-73.7421	168.963	-4.34057	-88.8764	175.564	16.0556	-9.31165	180.255	16.5961	16.4365	153.876	34.6103	8.01476	
37	0.308333	120.564	20.6146	15.0268	97.9898	15.3303	-10.9179	84.3374	9.53773	-41.8934	78.5687	0.540525	-60.5279	137.621	31.4069	-61.9666	134.894	28.556	-87.2081	128.862	27.2286	-112.505	153.359	24.2937	-72.0668	149.218	18.8779	-97.935	140.898	13.9275	-128.555	166.719	10.1989	-63.3595	160.91	8.3539	-91.3491	155.465	5.5171	-113.608	176.832	-6.82608	-51.8904	172.783	-6.52202	-74.6341	168.33	-4.01903	-94.4865	178.862	16.428	-9.92679	184.572	14.6514	14.6035	154.309	35.0599	0.983297	
